<svg width="100" height="100" viewBox="0 0 100 100" xmlns="http://www.w3.org/2000/svg">
  <defs>
    <linearGradient id="grad1" x1="0%" y1="0%" x2="100%" y2="100%">
      <stop offset="0%" style="stop-color:#3b82f6;stop-opacity:1" />
      <stop offset="100%" style="stop-color:#8b5cf6;stop-opacity:1" />
    </linearGradient>
  </defs>
  
  <!-- Stylized Spiral / Aperture -->
  <g fill="none" stroke="url(#grad1)" stroke-width="6" stroke-linecap="round">
    <path d="M 50 50 m -0, 0 a 10,10 0 1,0 20,0 a 10,10 0 1,0 -20,0" stroke-opacity="0.3" stroke-width="2"/>
    <path d="M 50 50 m -0, 0 a 20,20 0 1,0 40,0 a 20,20 0 1,0 -40,0" stroke-opacity="0.5" stroke-width="2"/>
    <path d="M 50 50 L 50 20 A 30 30 0 0 1 80 50" stroke-width="8"/>
    <circle cx="50" cy="50" r="12" fill="url(#grad1)" stroke="none"/>
    <circle cx="25" cy="75" r="6" fill="#3b82f6"/>
    <circle cx="75" cy="25" r="4" fill="#8b5cf6"/>
  </g>
  
  <!-- Text hint (optional, kept abstract for now) -->
</svg>
